<svg width="21" height="21" viewBox="0 0 21 21" fill="none" xmlns="http://www.w3.org/2000/svg">
<path d="M1.49628 15.5025C0.943992 15.5025 0.496277 15.9502 0.496277 16.5025C0.496277 17.0548 0.943992 17.5025 1.49628 17.5025V15.5025ZM6.49836 17.5025C7.05064 17.5025 7.49836 17.0548 7.49836 16.5025C7.49836 15.9502 7.05064 15.5025 6.49836 15.5025V17.5025ZM6.49836 20.5037C7.05064 20.5037 7.49836 20.056 7.49836 19.5037C7.49836 18.9515 7.05064 18.5037 6.49836 18.5037V20.5037ZM3.49711 18.5037C2.94483 18.5037 2.49711 18.9515 2.49711 19.5037C2.49711 20.056 2.94483 20.5037 3.49711 20.5037V18.5037ZM10.5 18.5037C9.94774 18.5037 9.50003 18.9515 9.50003 19.5037C9.50003 20.056 9.94774 20.5037 10.5 20.5037V18.5037ZM1.49628 10.5H0.496269L0.496285 10.504L1.49628 10.5ZM0.761641 12.7318C0.889217 13.2692 1.42824 13.6014 1.96559 13.4738C2.50294 13.3462 2.83513 12.8072 2.70755 12.2698L0.761641 12.7318ZM11.2179 6.49833C11.2179 5.94604 10.7702 5.49833 10.2179 5.49833C9.66562 5.49833 9.21791 5.94604 9.21791 6.49833H11.2179ZM10.2179 11.1363H9.21791C9.21791 11.485 9.39959 11.8085 9.69735 11.9901L10.2179 11.1363ZM13.3549 14.22C13.8264 14.5075 14.4418 14.3583 14.7293 13.8868C15.0168 13.4152 14.8675 12.7999 14.396 12.5124L13.3549 14.22ZM1.49628 17.5025H6.49836V15.5025H1.49628V17.5025ZM6.49836 18.5037H3.49711V20.5037H6.49836V18.5037ZM10.5 20.5037C16.0249 20.5037 20.5038 16.0249 20.5038 10.5H18.5038C18.5038 14.9203 14.9204 18.5037 10.5 18.5037V20.5037ZM20.5038 10.5C20.5038 4.97508 16.0249 0.496246 10.5 0.496246V2.49625C14.9204 2.49625 18.5038 6.07965 18.5038 10.5H20.5038ZM10.5 0.496246C4.97511 0.496246 0.496277 4.97508 0.496277 10.5H2.49628C2.49628 6.07965 6.07968 2.49625 10.5 2.49625V0.496246ZM0.496285 10.504C0.499288 11.2543 0.588321 12.0018 0.761641 12.7318L2.70755 12.2698C2.56955 11.6886 2.49866 11.0934 2.49627 10.496L0.496285 10.504ZM9.21791 6.49833V11.1363H11.2179V6.49833H9.21791ZM9.69735 11.9901L13.3549 14.22L14.396 12.5124L10.7385 10.2824L9.69735 11.9901Z" fill="#323232"/>
</svg>
